<svg xmlns="http://www.w3.org/2000/svg" width="58" height="58" viewBox="0 0 58 58"><g fill="none"><g stroke="#E6007E"><path d="M44.708 51.958a4.835 4.835 0 0 1-4.833 4.834h-21.75a4.835 4.835 0 0 1-4.833-4.834V6.042a4.835 4.835 0 0 1 4.833-4.834h21.75a4.835 4.835 0 0 1 4.833 4.834v45.916zm0-41.083H13.292m31.416 36.25H13.292m9.666-41.083h12.084"/><path d="M30.208 51.958a1.21 1.21 0 1 1-2.417 0 1.21 1.21 0 0 1 2.418 0z"/></g><path stroke="#555" stroke-linecap="round" d="M18.125 15.708h4.833v4.833h-4.833zm0 21.75h4.833v4.833h-4.833zm16.916-21.75h4.834v4.833H35.04zm-16.915 9.667h7.25v2.417m-7.25 4.833h9.667m12.083 9.667v-4.834h-7.21m0-4.833v-2.417m7.21 2.417h-2.378m-9.705 4.908v4.76h7.25m-7.25-26.546v4.795h2.416m.04 4.833h9.666"/><path d="M0 0h58v58H0z"/></g></svg>