<?xml version="1.0" encoding="utf-8"?>
<!-- Generator: Adobe Illustrator 16.0.0, SVG Export Plug-In . SVG Version: 6.00 Build 0)  -->
<!DOCTYPE svg PUBLIC "-//W3C//DTD SVG 1.1//EN" "http://www.w3.org/Graphics/SVG/1.1/DTD/svg11.dtd">
<svg version="1.1" id="Capa_1" xmlns="http://www.w3.org/2000/svg" xmlns:xlink="http://www.w3.org/1999/xlink" x="0px" y="0px"
	 width="152px" height="152px" viewBox="0 0 152 152" enable-background="new 0 0 152 152" xml:space="preserve">
<g>
	<path fill="none" stroke="#E6017E" stroke-width="0.75" stroke-miterlimit="10" d="M41.944,146.375
		c0,0-21.458-11.203-20.201-63.022V47.454c0,0,3.012-10.613,14.619-10.613c0,0,10.02-0.313,11.127,10.3v49.011
		c0,0,19.2,1.872,19.83,22.475"/>
	<path fill="none" stroke="#E6017E" stroke-width="0.75" stroke-miterlimit="10" d="M109.019,146.375
		c0,0,16.768-22.13,12.979-60.524"/>
	<polyline fill="none" stroke="#E6017E" stroke-width="0.75" stroke-miterlimit="10" points="21.689,85.851 9.575,85.851 
		9.575,9.995 142.426,9.995 142.426,84.877 47.489,84.877 	"/>
	<path fill="none" stroke="#E6007E" stroke-width="0.75" stroke-miterlimit="10" d="M97.142,47.919
		c0,10.486-8.505,18.986-18.985,18.986c-10.486,0-18.988-8.5-18.988-18.986c0-10.484,8.502-18.981,18.988-18.981
		C88.637,28.938,97.142,37.436,97.142,47.919z"/>
	<g>
		<path fill="none" stroke="#E6017E" stroke-width="0.75" stroke-miterlimit="10" d="M85.886,39.167c0,0-4.8-4.63-10.218-1.849
			c0,0-5.366,2.879-1.268,8.589c0,0,1.903,1.512,4.685,2.097c0,0,8.732,1.708,5.805,7.855c0,0-2.976,7.709-13.319,1.562"/>
		
			<line fill="none" stroke="#E6017E" stroke-width="0.75" stroke-miterlimit="10" x1="79.913" y1="32.927" x2="77.619" y2="63.959"/>
	</g>
	<line fill="none" stroke="#E6017E" stroke-width="0.75" stroke-miterlimit="10" x1="9.575" y1="5.625" x2="142.426" y2="5.625"/>
</g>
</svg>
