<?xml version="1.0" encoding="utf-8"?>
<!-- Generator: Adobe Illustrator 16.0.0, SVG Export Plug-In . SVG Version: 6.00 Build 0)  -->
<!DOCTYPE svg PUBLIC "-//W3C//DTD SVG 1.1//EN" "http://www.w3.org/Graphics/SVG/1.1/DTD/svg11.dtd">
<svg version="1.1" id="Capa_1" xmlns="http://www.w3.org/2000/svg" xmlns:xlink="http://www.w3.org/1999/xlink" x="0px" y="0px"
	 width="152px" height="152px" viewBox="0 0 152 152" enable-background="new 0 0 152 152" xml:space="preserve">
<g>
	
		<path fill="none" stroke="#E6007E" stroke-width="0.75" stroke-linecap="round" stroke-linejoin="round" stroke-miterlimit="10" d="
		M10.575,80.005c0,0-0.604-9.663,10.268-9.865h94.021c0,0,9.059,0.806,8.858,12.08v46.709c0,0,0.203,8.254-11.677,8.053
		l-91.806,0.004c0,0-9.877-0.004-9.671-10.875L10.575,80.005z"/>
	
		<line fill="none" stroke="#E6007E" stroke-width="0.75" stroke-linecap="round" stroke-linejoin="round" stroke-miterlimit="10" x1="10.565" y1="87.858" x2="123.722" y2="87.858"/>
	
		<line fill="none" stroke="#E6007E" stroke-width="0.75" stroke-linecap="round" stroke-linejoin="round" stroke-miterlimit="10" x1="10.565" y1="100.741" x2="123.722" y2="100.741"/>
	
		<rect x="86.274" y="118.058" fill="none" stroke="#E6007E" stroke-width="0.75" stroke-linecap="round" stroke-linejoin="round" stroke-miterlimit="10" width="25.367" height="9.863"/>
	
		<path fill="none" stroke="#E6007E" stroke-width="0.75" stroke-linecap="round" stroke-linejoin="round" stroke-miterlimit="10" d="
		M20.036,70.14c0,0-4.228-4.833,1.007-12.886L47.215,20.21c0,0,4.633-8.656,13.289-3.624l77.511,55.366c0,0,6.645,5.436,1.41,13.287
		l-15.7,21.141"/>
	
		<line fill="none" stroke="#E6007E" stroke-width="0.75" stroke-linecap="round" stroke-linejoin="round" stroke-miterlimit="10" x1="134.767" y1="91.513" x2="123.722" y2="82.22"/>
	
		<line fill="none" stroke="#E6007E" stroke-width="0.75" stroke-linecap="round" stroke-linejoin="round" stroke-miterlimit="10" x1="104.192" y1="70.14" x2="43.313" y2="25.734"/>
	
		<line fill="none" stroke="#E6007E" stroke-width="0.75" stroke-linecap="round" stroke-linejoin="round" stroke-miterlimit="10" x1="82.853" y1="70.14" x2="35.872" y2="36.267"/>
	
		<line fill="none" stroke="#E6007E" stroke-width="0.75" stroke-linecap="round" stroke-linejoin="round" stroke-miterlimit="10" x1="123.722" y1="96.917" x2="127.912" y2="100.741"/>
</g>
</svg>
