<svg xmlns="http://www.w3.org/2000/svg" width="24" height="24" viewBox="0 0 24 24"><g fill="none"><path d="M0 0h24v24H0z"/><path d="M10.167 14.75S8.792 14.292 8.792 12c-.757 0-.757-1.833 0-1.833 0-.307-1.375-3.667.916-3.21.46-1.832 5.5-1.832 5.96 0 .317 1.274-.46 2.984-.46 3.21.758 0 .758 1.833 0 1.833 0 2.292-1.375 2.75-1.375 2.75v2.292c2.27.85 4.52 1.555 5.67 2.36A10.508 10.508 0 0 0 22.543 12c0-5.823-4.72-10.542-10.542-10.542C6.178 1.458 1.46 6.178 1.46 12a10.51 10.51 0 0 0 3.048 7.413c1.22-.843 3.623-1.6 5.66-2.37V14.75zm-5.66 4.663A10.51 10.51 0 0 0 12 22.543a10.51 10.51 0 0 0 7.504-3.14" stroke="#666" stroke-linejoin="round"/></g></svg>