<svg xmlns="http://www.w3.org/2000/svg" width="90" height="33" viewBox="0 0 90 33"><g fill="none"><path d="M48.25 7.492c0-3.746 2.766-7.046 6.87-7.046s6.866 3.21 6.866 6.957c0 3.746-2.764 6.956-6.867 6.956-4.104.09-6.87-3.122-6.87-6.868zm12.13 0c0-3.122-2.23-5.62-5.35-5.62-3.122 0-5.262 2.498-5.262 5.53 0 3.033 2.23 5.62 5.35 5.62 3.123 0 5.263-2.408 5.263-5.53zm15.52 0c0-3.746 2.765-7.046 6.868-7.046 4.102 0 6.867 3.21 6.867 6.957 0 3.746-2.765 6.956-6.867 6.956-4.103.09-6.868-3.122-6.868-6.868zm12.13 0c0-3.122-2.23-5.62-5.352-5.62-3.12 0-5.262 2.498-5.262 5.53 0 3.033 2.23 5.62 5.352 5.62 3.12 0 5.262-2.408 5.262-5.53zm-13.022 16.41c0-3.834 3.033-7.045 7.224-7.045 4.192 0 7.136 3.12 7.136 6.957 0 3.835-3.033 6.956-7.225 6.956-4.102.09-7.135-3.032-7.135-6.867zm11.238 0c0-2.32-1.695-4.28-4.103-4.28-2.408 0-4.013 1.873-4.013 4.192 0 2.318 1.694 4.28 4.102 4.28 2.41 0 4.014-1.872 4.014-4.19z" fill="#404040"/><path fill="#E6007E" d="M32.197 30.235a1.98 1.98 0 0 1-1.962 1.962H1.962A1.98 1.98 0 0 1 0 30.235V1.962A1.98 1.98 0 0 1 1.962 0h28.273a1.98 1.98 0 0 1 1.962 1.962v28.273z"/><path fill="#FFF" d="M21.227 6.243H5.44c-.98 0-1.872.803-1.872 1.873 0 .98.802 1.873 1.873 1.873h4.995c.09 0 .09.09.09.09 0 .088 0 .088-.09.088s-.713.178-1.16.356v12.04a1.98 1.98 0 0 0 1.963 1.963 1.98 1.98 0 0 0 1.962-1.962v-11.95a.61.61 0 0 1 .624-.626h6.958c1.96 0 3.21.89 3.21 2.675v.09c0 1.515-1.16 2.764-3.122 2.764h-3.032c-1.516 0-1.606.712-1.606 1.337v5.797a1.98 1.98 0 0 0 1.963 1.962 1.98 1.98 0 0 0 1.962-1.962V19.71c-.446-.09-1.25-.356-1.338-.356-.09 0-.09-.09-.09-.09 0-.088.09-.088.09-.088h1.872c4.013 0 7.313-2.14 7.313-6.333v-.09c.18-4.012-2.497-6.51-6.778-6.51z"/><path fill="#404040" d="M67.962.892h-3.924c-.446 0-.714.357-.714.803v11.95c0 .447.357.804.714.804h3.924c4.28 0 7.224-2.945 7.224-6.78S72.243.892 67.962.892zm5.62 6.778c0 3.033-2.14 5.352-5.62 5.352h-2.765a.384.384 0 0 1-.356-.357v-9.99c0-.178.18-.356.357-.356h2.854c3.39 0 5.53 2.318 5.53 5.35zM48.43.892h-9.365c-.357 0-.714.357-.714.713 0 .357.358.714.715.714h3.567c.18 0 .357.177.357.356v11.06a.8.8 0 0 0 .802.802.8.8 0 0 0 .803-.803V2.675c0-.178.178-.356.356-.356h3.57a.703.703 0 0 0 .712-.715c0-.446-.356-.713-.802-.713zm-4.55 16.054H39.87c-.803 0-1.517.624-1.517 1.516v10.614c0 .802.626 1.516 1.518 1.516.802 0 1.516-.624 1.516-1.516V26.4h2.23c3.032 0 5.44-1.605 5.44-4.727 0-2.854-1.962-4.727-5.173-4.727zm2.14 4.727c0 1.16-.89 2.05-2.317 2.05H41.74a.384.384 0 0 1-.357-.355v-3.39c0-.178.178-.356.357-.356h1.962c1.427 0 2.32.713 2.32 2.05zm26.937 1.25h-4.46c-.713 0-1.338.534-1.338 1.336 0 .713.535 1.25 1.337 1.25h2.676c.178 0 .357.176.357.355v1.516c-.714.536-1.695.804-2.765.804-2.408 0-4.103-1.784-4.103-4.28 0-2.32 1.695-4.193 3.924-4.193 1.25 0 2.14.358 2.944.893.178.178.446.267.892.267.802 0 1.427-.624 1.427-1.427 0-.535-.358-.98-.626-1.16-1.248-.89-2.586-1.337-4.638-1.337-4.102 0-7.045 3.122-7.045 6.957 0 4.013 2.855 6.956 7.136 6.956 2.05 0 3.656-.714 4.727-1.338.713-.446 1.07-.98 1.07-1.873v-3.3c0-.804-.624-1.428-1.516-1.428zm-11.595 5.796l-4.727-10.615c-.357-.713-.892-1.16-1.694-1.16h-.178c-.803 0-1.427.447-1.694 1.16L48.34 28.72c-.09.178-.18.446-.18.624 0 .803.625 1.427 1.34 1.427.623 0 1.16-.355 1.337-.89l.98-2.23h5.977l.89 2.14c.27.625.715.98 1.43.98.8 0 1.426-.623 1.426-1.426 0-.267-.09-.446-.18-.624zm-6.51-8.206l1.694 4.102v.09c0 .09-.09.267-.178.267h-3.033c-.09 0-.178-.09-.178-.268v-.09l1.694-4.1z"/></g></svg>