<svg xmlns="http://www.w3.org/2000/svg" width="70" height="70" viewBox="0 0 70 70"><g fill="none"><circle cx="35" cy="34.679" r="33.679" fill="#EEE" fill-rule="nonzero"/><path stroke="#666" stroke-width="2" d="M14.1 50C15 40 22.4 32.4 29 23c.6-.8 1-1.9 1-3M16 60.2C18.3 64 22.6 66 29 66h12m-1-46c0 1.1.4 2.2 1 3 5.5 7.9 11.6 14.2 14 22M43 18c0-.5-.2-1-.6-1.4-.4-.4-.9-.6-1.4-.6H29c-.5 0-1 .2-1.4.6-.4.4-.6.9-.6 1.4 0 .5.2 1 .6 1.4.4.4.9.6 1.4.6h12c.5 0 1-.2 1.4-.6.4-.4.6-.9.6-1.4zM32 7c0-1.7-1.3-3-3-3s-3 1.3-3 3l4 9m2-9c0-1.7 1.3-3 3-3s3 1.3 3 3m0 0c0-1.7 1.3-3 3-3s3 1.3 3 3l-4 9m-7 0v-5m4 5v-5m-4 14v-5m4 5v-5"/><circle cx="35" cy="46" r="13" fill="#E6007E" fill-rule="nonzero"/><path d="M38 43c0-.8-.3-1.5-.9-2.1-.6-.6-1.4-.9-2.1-.9-.8 0-1.5.3-2.1.9-.6.6-.9 1.4-.9 2.1 0 .8.3 1.5.9 2.1.6.6 1.4.9 2.1.9m-3 3c0 .8.3 1.5.9 2.1.6.6 1.4.9 2.1.9.8 0 1.5-.3 2.1-.9.6-.6.9-1.4.9-2.1 0-.8-.3-1.5-.9-2.1-.6-.6-1.4-.9-2.1-.9m0-6v-3m0 18v-3M42 46h2m-18 0h2" stroke="#FFF" stroke-width="2"/><path fill="#F8B3D9" fill-rule="nonzero" d="M12 28h4v4h-4zm0 22h4v16h-4zm39 8h4v8h-4zm10-20h4v28h-4z"/><path stroke="#666" stroke-width="2" d="M16 63c0-.3-.1-.5-.3-.7-.2-.2-.5-.3-.7-.3H7c-.3 0-.5.1-.7.3-.2.2-.3.5-.3.7v2c0 .3.1.5.3.7.2.2.5.3.7.3h8c.3 0 .5-.1.7-.3.2-.2.3-.5.3-.7v-2zm0-4c0-.3-.1-.5-.3-.7-.2-.2-.5-.3-.7-.3H7c-.3 0-.5.1-.7.3-.2.2-.3.5-.3.7v2c0 .3.1.5.3.7.2.2.5.3.7.3h8c.3 0 .5-.1.7-.3.2-.2.3-.5.3-.7v-2zm0-4c0-.3-.1-.5-.3-.7-.2-.2-.5-.3-.7-.3H7c-.3 0-.5.1-.7.3-.2.2-.3.5-.3.7v2c0 .3.1.5.3.7.2.2.5.3.7.3h8c.3 0 .5-.1.7-.3.2-.2.3-.5.3-.7v-2zm0-4c0-.3-.1-.5-.3-.7-.2-.2-.5-.3-.7-.3H7c-.3 0-.5.1-.7.3-.2.2-.3.5-.3.7v2c0 .3.1.5.3.7.2.2.5.3.7.3h8c.3 0 .5-.1.7-.3.2-.2.3-.5.3-.7v-2zm39 12c0-.3.1-.5.3-.7.2-.2.5-.3.7-.3h8c.3 0 .5.1.7.3.2.2.3.5.3.7v2c0 .3-.1.5-.3.7-.2.2-.5.3-.7.3h-8c-.3 0-.5-.1-.7-.3-.2-.2-.3-.5-.3-.7v-2zm0-4c0-.3.1-.5.3-.7.2-.2.5-.3.7-.3h8c.3 0 .5.1.7.3.2.2.3.5.3.7v2c0 .3-.1.5-.3.7-.2.2-.5.3-.7.3h-8c-.3 0-.5-.1-.7-.3-.2-.2-.3-.5-.3-.7v-2zm0-4c0-.3.1-.5.3-.7.2-.2.5-.3.7-.3h8c.3 0 .5.1.7.3.2.2.3.5.3.7v2c0 .3-.1.5-.3.7-.2.2-.5.3-.7.3h-8c-.3 0-.5-.1-.7-.3-.2-.2-.3-.5-.3-.7v-2zm0-4c0-.3.1-.5.3-.7.2-.2.5-.3.7-.3h8c.3 0 .5.1.7.3.2.2.3.5.3.7v2c0 .3-.1.5-.3.7-.2.2-.5.3-.7.3h-8c-.3 0-.5-.1-.7-.3-.2-.2-.3-.5-.3-.7v-2zm0-4c0-.3.1-.5.3-.7.2-.2.5-.3.7-.3h8c.3 0 .5.1.7.3.2.2.3.5.3.7v2c0 .3-.1.5-.3.7-.2.2-.5.3-.7.3h-8c-.3 0-.5-.1-.7-.3-.2-.2-.3-.5-.3-.7v-2zm0-4c0-.3.1-.5.3-.7.2-.2.5-.3.7-.3h8c.3 0 .5.1.7.3.2.2.3.5.3.7v2c0 .3-.1.5-.3.7-.2.2-.5.3-.7.3h-8c-.3 0-.5-.1-.7-.3-.2-.2-.3-.5-.3-.7v-2zm0-4c0-.3.1-.5.3-.7.2-.2.5-.3.7-.3h8c.3 0 .5.1.7.3.2.2.3.5.3.7v2c0 .3-.1.5-.3.7-.2.2-.5.3-.7.3h-8c-.3 0-.5-.1-.7-.3-.2-.2-.3-.5-.3-.7v-2zM45 63c0-.3.1-.5.3-.7.2-.2.5-.3.7-.3h8c.3 0 .5.1.7.3.2.2.3.5.3.7v2c0 .3-.1.5-.3.7-.2.2-.5.3-.7.3h-8c-.3 0-.5-.1-.7-.3-.2-.2-.3-.5-.3-.7v-2zm0-4c0-.3.1-.5.3-.7.2-.2.5-.3.7-.3h8c.3 0 .5.1.7.3.2.2.3.5.3.7v2c0 .3-.1.5-.3.7-.2.2-.5.3-.7.3h-8c-.3 0-.5-.1-.7-.3-.2-.2-.3-.5-.3-.7v-2zM16 29c0-.3-.1-.5-.3-.7-.2-.2-.5-.3-.7-.3H7c-.3 0-.5.1-.7.3-.2.2-.3.5-.3.7v2c0 .3.1.5.3.7.2.2.5.3.7.3h8c.3 0 .5-.1.7-.3.2-.2.3-.5.3-.7v-2zM9 19v6m4-4v-2m0-2v-6"/></g></svg>